<svg width="32" height="32" viewBox="0 0 32 32" fill="none" xmlns="http://www.w3.org/2000/svg">
  <!-- Círculo de fundo rosa -->
  <circle cx="16" cy="16" r="16" fill="#C4837E"/>
  
  <!-- Linha contínua formando cão e gato em formato de coração -->
  <path d="M5 10 C5 8.5, 6 7.5, 7.5 7.5 C9 7.5, 10 8.5, 10 10 C10 11.5, 9 12.5, 8 13.5 C7 14.5, 6 15.5, 5.5 16.5 C5 17.5, 5 18.5, 5.5 19.5 C6 20.5, 7 21.5, 8 22.5 C9 23.5, 10 24.5, 11 25.5 C12 26.5, 13 27, 14 27.5 C15 28, 16 28.5, 16 29
  
  C16 28.5, 17 28, 18 27.5 C19 27, 20 26.5, 21 25.5 C22 24.5, 23 23.5, 24 22.5 C25 21.5, 26 20.5, 26.5 19.5 C27 18.5, 27 17.5, 26.5 16.5 C26 15.5, 25 14.5, 24 13.5 C23 12.5, 22 11.5, 22 10 C22 8.5, 23 7.5, 24.5 7.5 C26 7.5, 27 8.5, 27 10
  
  M22 10 L21 6 M22 10 L23 6
  M27 10 C28 10, 29 11, 29 12 C29 13, 28 14, 27 15 C26 16, 25 17, 24 18
  M16 29 C16 29.5, 16 30, 16 30.5" 
  
  stroke="white" stroke-width="1.5" fill="none" stroke-linecap="round" stroke-linejoin="round"/>
  
  <!-- Detalhes mínimos -->
  <circle cx="7.5" cy="9.5" r="0.4" fill="white"/>
  <circle cx="23.5" cy="9" r="0.4" fill="white"/>
  <circle cx="25" cy="9" r="0.4" fill="white"/>
</svg>