<svg width="16" height="16" viewBox="0 0 16 16" fill="none" xmlns="http://www.w3.org/2000/svg">
  <!-- Círculo de fundo rosa -->
  <circle cx="8" cy="8" r="8" fill="#C4837E"/>
  
  <!-- Linha contínua formando cão e gato em formato de coração -->
  <path d="M2.5 5 C2.5 4, 3 3.5, 4 3.5 C5 3.5, 5.5 4, 5.5 5 C5.5 6, 5 6.5, 4.5 7 C4 7.5, 3.5 8, 3 8.5 C2.5 9, 2.5 9.5, 3 10 C3.5 10.5, 4 11, 4.5 11.5 C5 12, 5.5 12.5, 6 13 C6.5 13.5, 7 14, 7.5 14.5 C8 15, 8 15.5, 8 16
  
  C8 15.5, 8 15, 8.5 14.5 C9 14, 9.5 13.5, 10 13 C10.5 12.5, 11 12, 11.5 11.5 C12 11, 12.5 10.5, 13 10 C13.5 9.5, 13.5 9, 13 8.5 C12.5 8, 12 7.5, 11.5 7 C11 6.5, 10.5 6, 10.5 5 C10.5 4, 11 3.5, 12 3.5 C13 3.5, 13.5 4, 13.5 5
  
  M10.5 5 L10 2.5 M10.5 5 L11 2.5
  M13.5 5 C14 5, 14.5 5.5, 14.5 6 C14.5 6.5, 14 7, 13.5 7.5 C13 8, 12.5 8.5, 12 9" 
  
  stroke="white" stroke-width="1.2" fill="none" stroke-linecap="round" stroke-linejoin="round"/>
  
  <!-- Detalhes mínimos -->
  <circle cx="4" cy="4.5" r="0.3" fill="white"/>
  <circle cx="11.5" cy="4.5" r="0.3" fill="white"/>
  <circle cx="12.5" cy="4.5" r="0.3" fill="white"/>
</svg>